#!OML:ASF E:\id_vita\Project 1\Capture day 1\Session 1\Female.ASF
:FULLY-SPECIFIED
:DEGREES
1774
root 16.8705 14.6529 -0.983795 203.797 264.003 -169.443
lowerback 17.1199 0.485868 -4.58415
upperback 6.16661 -0.251087 3.98099
thorax -2.94322 -0.33185 6.92003
lowerneck -4.01659 -3.88324 -5.44441
upperneck -27.9117 -3.76009 15.0924
head -7.36322 -3.30755 6.32814
rclavicle 2.70347e-014 2.0276e-014
rhumerus 11.8524 19.2658 -52.9797
rradius 73.6783
rwrist -16.7664
rhand -52.0932 16.5982
rfingers 7.12502
rthumb -24.5968 -11.8415
lclavicle 2.70347e-014 2.0276e-014
lhumerus 3.75464 -20.4155 77.8327
lradius 74.1252
lwrist -26.9433
lhand -35.0336 52.6772
lfingers 7.12502
lthumb -8.17719 82.499
rfemur -125.913 5.76884 31.4284
rtibia 109.514
rfoot -8.83775 0.863102
rtoes -38.034
lfemur -65.9516 -0.235983 -31.866
ltibia 67.3568
lfoot -26.3229 24.2941
ltoes -0.212883
1775
root 16.9774 14.6852 -0.972163 206.947 264.339 -172.485
lowerback 16.5847 0.748634 -4.24274
upperback 6.40199 0.138127 3.61843
thorax -2.47341 -0.156033 6.23958
lowerneck -5.21647 -4.04469 -4.49323
upperneck -27.6231 -4.10558 14.5677
head -7.07405 -3.49661 5.92691
rclavicle -2.62396e-014 -2.98177e-014
rhumerus 12.2346 17.9535 -53.4155
rradius 73.1968
rwrist -16.5967
rhand -51.9471 16.489
rfingers 7.12502
rthumb -24.4568 -11.9697
lclavicle -2.62396e-014 -2.98177e-014
lhumerus 5.23683 -20.9718 77.3483
lradius 73.775
lwrist -26.6041
lhand -36.3784 52.4102
lfingers 7.12502
lthumb -9.47492 82.1772
rfemur -125.363 5.77211 31.3257
rtibia 108.387
rfoot -5.01218 3.00308
rtoes -27.7835
lfemur -66.5219 -0.79509 -31.2606
ltibia 67.4226
lfoot -25.6278 25.2577
ltoes -0.822912
1776
root 17.0493 14.6228 -0.96024 210.516 264.628 -176.088
lowerback 16.5493 0.568548 -4.35698
upperback 6.45861 -0.115243 3.72239
thorax -2.35673 -0.291355 6.46396
lowerneck -6.53192 -3.81764 -4.86272
upperneck -26.7444 -3.90263 14.2891
head -6.57826 -3.27658 5.79611
rclavicle -1.27222e-014 3.61788e-014
rhumerus 13.8585 18.44 -53.0507
rradius 72.5528
rwrist -16.9616
rhand -51.6 16.7984
rfingers 7.12502
rthumb -24.1241 -11.7049
lclavicle -1.27222e-014 3.61788e-014
lhumerus 5.60936 -19.5822 77.5681
lradius 73.6868
lwrist -26.863
lhand -36.9713 52.713
lfingers 7.12502
lthumb -10.047 82.4531
rfemur -125.405 5.91756 31.0291
rtibia 107.96
rfoot -4.48462 3.22601
rtoes -26.2389
lfemur -67.1182 -1.62001 -30.4637
ltibia 67.8286
lfoot -24.8761 26.4477
ltoes -0.572362
1777
root 17.1261 14.6079 -0.946538 213.778 264.929 -179.475
lowerback 16.699 0.638711 -4.4173
upperback 6.4126 -0.036377 3.79149
thorax -2.49504 -0.249253 6.5631
lowerneck -6.37023 -3.62668 -5.55238
upperneck -27.1011 -3.59894 14.4285
head -6.73008 -3.09377 5.9893
rclavicle -2.98177e-014 -2.98177e-015
rhumerus 14.7272 18.3114 -52.832
rradius 71.9337
rwrist -17.3765
rhand -51.4763 17.1158
rfingers 7.12502
rthumb -24.0054 -11.4031
lclavicle -2.98177e-014 -2.98177e-015
lhumerus 6.0387 -18.9228 77.9397
lradius 73.6413
lwrist -27.408
lhand -36.4878 53.3455
lfingers 7.12502
lthumb -9.58049 83.1077
rfemur -124.876 5.92749 30.7367
rtibia 107.227
rfoot -4.26856 3.12237
rtoes -25.286
lfemur -67.4647 -1.91015 -30.0309
ltibia 68.0191
lfoot -24.5279 26.9874
ltoes 0.393786
1778
root 17.2069 14.6182 -0.941351 216.754 265.234 -182.548
lowerback 16.86 0.86783 -4.5715
upperback 6.2236 0.242296 3.75684
thorax -2.82168 -0.0937866 6.56752
lowerneck -4.91529 -3.26055 -5.92909
upperneck -28.5603 -3.04719 14.3936
head -7.52556 -2.87487 6.17705
rclavicle -9.14409e-015 1.98785e-015
rhumerus 14.8121 17.733 -53.1253
rradius 71.3741
rwrist -17.3218
rhand -51.4648 16.8905
rfingers 7.12502
rthumb -23.9944 -11.6299
lclavicle -9.14409e-015 1.98785e-015
lhumerus 6.42578 -18.8814 78.2392
lradius 73.4945
lwrist -27.8146
lhand -35.3624 53.4805
lfingers 7.12502
lthumb -8.49448 83.2896
rfemur -124.665 5.96015 30.4367
rtibia 107.066
rfoot -4.78304 2.4523
rtoes -27.532
lfemur -67.7729 -2.09323 -29.6602
ltibia 68.1696
lfoot -24.4838 27.3422
ltoes 1.35462
